<?xml version="1.0" standalone="no"?><!DOCTYPE svg PUBLIC "-//W3C//DTD SVG 1.1//EN" "http://www.w3.org/Graphics/SVG/1.1/DTD/svg11.dtd"><svg t="1622448186026" class="icon" viewBox="0 0 1024 1024" version="1.1" xmlns="http://www.w3.org/2000/svg" p-id="2353" xmlns:xlink="http://www.w3.org/1999/xlink" width="200" height="200"><defs><style type="text/css"></style></defs><path d="M32 470.4h438.4V32H32v438.4z m73.6-364.8h291.2v291.2H105.6V105.6z" p-id="2354" fill="#e6e6e6"></path><path d="M195.2 195.2H304V304H195.2zM32 992h438.4V553.6H32V992z m73.6-364.8h291.2v291.2H105.6V627.2z" p-id="2355" fill="#e6e6e6"></path><path d="M195.2 720H304v108.8H195.2zM553.6 32v438.4H992V32H553.6z m364.8 364.8H627.2V105.6h291.2v291.2z" p-id="2356" fill="#e6e6e6"></path><path d="M720 195.2h108.8V304H720zM553.6 880h108.8v108.8H553.6z m329.6-355.2H992v108.8H883.2z m0 358.4H800V992h192V800H883.2z m-57.6-57.6V524.8H659.2v108.8H553.6v220.8h105.6v-112h57.6v83.2z" p-id="2357" fill="#e6e6e6"></path></svg>